<?xml version="1.0" encoding="utf-8" standalone="no"?>
<!DOCTYPE svg PUBLIC "-//W3C//DTD SVG 1.1//EN"
  "http://www.w3.org/Graphics/SVG/1.1/DTD/svg11.dtd">
<!-- Created with matplotlib (https://matplotlib.org/) -->
<svg height="360pt" version="1.1" viewBox="0 0 1440 360" width="1440pt" xmlns="http://www.w3.org/2000/svg" xmlns:xlink="http://www.w3.org/1999/xlink">
 <defs>
  <style type="text/css">
*{stroke-linecap:butt;stroke-linejoin:round;}
  </style>
 </defs>
 <g id="figure_1">
  <g id="patch_1">
   <path d="M 0 360 
L 1440 360 
L 1440 0 
L 0 0 
z
" style="fill:#ffffff;"/>
  </g>
  <g id="axes_1">
   <g id="patch_2">
    <path d="M 180 315 
L 1296 315 
L 1296 36 
L 180 36 
z
" style="fill:#ffffff;"/>
   </g>
   <g id="line2d_1">
    <path clip-path="url(#p8599ba2c8b)" d="M 180 175.5 
L 191.272727 133.871274 
L 202.545455 96.036042 
L 213.818182 65.442108 
L 225.090909 44.8774 
L 236.363636 36.215914 
L 247.636364 40.246945 
L 258.909091 56.603157 
L 270.181818 83.794061 
L 281.454545 119.341835 
L 292.727273 160.007125 
L 304 202.084231 
L 315.272727 241.7388 
L 326.545455 275.357239 
L 337.818182 299.876004 
L 349.090909 313.060779 
L 360.363636 313.710077 
L 371.636364 301.76473 
L 382.909091 278.31328 
L 394.181818 245.492782 
L 405.454545 206.294063 
L 416.727273 164.28918 
L 428 123.305903 
L 439.272727 87.078909 
L 450.545455 58.909447 
L 461.818182 41.364512 
L 473.090909 36.042918 
L 484.363636 43.429605 
L 495.636364 62.851448 
L 506.909091 92.538595 
L 518.181818 129.785751 
L 529.454545 171.198702 
L 540.727273 213.003616 
L 552 251.390945 
L 563.272727 282.862573 
L 574.545455 304.550591 
L 585.818182 314.478639 
L 597.090909 311.742004 
L 608.363636 296.590069 
L 619.636364 270.403581 
L 630.909091 235.56883 
L 642.181818 195.260198 
L 653.454545 153.150882 
L 664.727273 113.07817 
L 676 78.693761 
L 687.272727 53.130997 
L 698.545455 38.719332 
L 709.818182 36.772054 
L 721.090909 47.466613 
L 732.363636 69.828449 
L 743.636364 101.819796 
L 754.909091 140.525387 
L 766.181818 182.418103 
L 777.454545 223.680395 
L 788.727273 260.55216 
L 800 289.673392 
L 811.272727 308.390365 
L 822.545455 314.997462 
L 833.818182 308.892598 
L 845.090909 290.63209 
L 856.363636 261.879961 
L 867.636364 225.2563 
L 878.909091 184.098506 
L 890.181818 142.157157 
L 901.454545 103.254236 
L 912.727273 70.934841 
L 924 48.144138 
L 935.272727 36.958969 
L 946.545455 38.398604 
L 957.818182 52.331854 
L 969.090909 77.489026 
L 980.363636 111.577627 
L 991.636364 151.49127 
L 1002.909091 193.592753 
L 1014.181818 234.0455 
L 1025.454545 269.163182 
L 1036.727273 295.745636 
L 1048 311.370487 
L 1059.272727 314.613892 
L 1070.545455 305.18029 
L 1081.818182 283.929336 
L 1093.090909 252.79756 
L 1104.363636 214.621903 
L 1115.636364 172.881192 
L 1126.909091 131.379124 
L 1138.181818 93.897651 
L 1149.454545 63.852341 
L 1160.727273 43.981128 
L 1172 36.094812 
L 1183.272727 40.912047 
L 1194.545455 57.993856 
L 1205.818182 85.783625 
L 1217.090909 121.748963 
L 1228.363636 162.612463 
L 1239.636364 204.650362 
L 1250.909091 244.031882 
L 1262.181818 277.168309 
L 1273.454545 301.040026 
L 1284.727273 313.471679 
L 1296 313.330412 
" style="fill:none;stroke:#0000ff;stroke-linecap:square;"/>
   </g>
   <g id="line2d_2">
    <path clip-path="url(#p8599ba2c8b)" d="M 180 36 
L 191.272727 42.356096 
L 202.545455 60.845173 
L 213.818182 89.78238 
L 225.090909 126.530761 
L 236.363636 167.741554 
L 247.636364 209.659349 
L 258.909091 248.464311 
L 270.181818 280.620268 
L 281.454545 303.196948 
L 292.727273 314.137011 
L 304 312.443524 
L 315.272727 298.270808 
L 326.545455 272.910379 
L 337.818182 238.673251 
L 349.090909 198.679346 
L 360.363636 156.57318 
L 371.636364 116.191756 
L 382.909091 81.214903 
L 394.181818 54.829952 
L 405.454545 39.441279 
L 416.727273 36.451205 
L 428 46.132205 
L 439.272727 67.602082 
L 450.545455 98.904354 
L 461.818182 137.186543 
L 473.090909 178.960116 
L 484.363636 220.41838 
L 495.636364 257.783374 
L 506.909091 287.650146 
L 518.181818 307.297031 
L 529.454545 314.933672 
L 540.727273 309.864165 
L 552 292.550478 
L 563.272727 264.570354 
L 574.545455 228.47353 
L 585.818182 187.549398 
L 597.090909 145.527242 
L 608.363636 106.236408 
L 619.636364 73.257345 
L 630.909091 49.595331 
L 642.181818 37.406609 
L 653.454545 37.801899 
L 664.727273 50.74518 
L 676 75.056971 
L 687.272727 108.521816 
L 698.545455 148.09017 
L 709.818182 190.156295 
L 721.090909 230.886839 
L 732.363636 266.570155 
L 743.636364 293.954538 
L 754.909091 310.544535 
L 766.181818 314.828353 
L 777.454545 306.41562 
L 788.727273 286.072963 
L 800 255.654143 
L 811.272727 217.93113 
L 822.545455 176.341504 
L 833.818182 134.675194 
L 845.090909 96.729119 
L 856.363636 65.961184 
L 867.636364 45.175173 
L 878.909091 36.26525 
L 890.181818 40.043347 
L 901.454545 56.165179 
L 912.727273 83.161614 
L 924 118.572552 
L 935.272727 159.171109 
L 946.545455 201.257665 
L 957.818182 240.997007 
L 969.090909 274.767815 
L 980.363636 299.492662 
L 991.636364 312.918452 
L 1002.909091 313.821735 
L 1014.181818 302.120197 
L 1025.454545 278.880164 
L 1036.727273 246.219424 
L 1048 207.114248 
L 1059.272727 165.128166 
L 1070.545455 124.087236 
L 1081.818182 87.731388 
L 1093.090909 59.373615 
L 1104.363636 41.598071 
L 1115.636364 36.024583 
L 1126.909091 43.161048 
L 1138.181818 62.35714 
L 1149.454545 91.863582 
L 1160.727273 128.991546 
L 1172 170.357676 
L 1183.272727 212.192411 
L 1194.545455 250.683482 
L 1205.818182 282.323322 
L 1217.090909 304.228692 
L 1228.363636 314.403425 
L 1239.636364 311.92033 
L 1250.909091 297.005684 
L 1262.181818 271.018611 
L 1273.454545 236.32723 
L 1284.727273 196.092857 
L 1296 153.981923 
" style="fill:none;stroke:#008000;stroke-dasharray:6,6;stroke-dashoffset:0;"/>
   </g>
   <g id="patch_3">
    <path d="M 180 315 
L 180 36 
" style="fill:none;stroke:#000000;stroke-linecap:square;stroke-linejoin:miter;"/>
   </g>
   <g id="patch_4">
    <path d="M 1296 315 
L 1296 36 
" style="fill:none;stroke:#000000;stroke-linecap:square;stroke-linejoin:miter;"/>
   </g>
   <g id="patch_5">
    <path d="M 180 315 
L 1296 315 
" style="fill:none;stroke:#000000;stroke-linecap:square;stroke-linejoin:miter;"/>
   </g>
   <g id="patch_6">
    <path d="M 180 36 
L 1296 36 
" style="fill:none;stroke:#000000;stroke-linecap:square;stroke-linejoin:miter;"/>
   </g>
   <g id="matplotlib.axis_1">
    <g id="xtick_1">
     <g id="line2d_3">
      <defs>
       <path d="M 0 0 
L 0 -4 
" id="mb54e5ced25" style="stroke:#000000;stroke-width:0.5;"/>
      </defs>
      <g>
       <use style="stroke:#000000;stroke-width:0.5;" x="180" xlink:href="#mb54e5ced25" y="315"/>
      </g>
     </g>
     <g id="line2d_4">
      <defs>
       <path d="M 0 0 
L 0 4 
" id="m5f0667d727" style="stroke:#000000;stroke-width:0.5;"/>
      </defs>
      <g>
       <use style="stroke:#000000;stroke-width:0.5;" x="180" xlink:href="#m5f0667d727" y="36"/>
      </g>
     </g>
     <g id="text_1">
      <!-- 0 -->
      <defs>
       <path d="M 31.78125 66.40625 
Q 24.171875 66.40625 20.328125 58.90625 
Q 16.5 51.421875 16.5 36.375 
Q 16.5 21.390625 20.328125 13.890625 
Q 24.171875 6.390625 31.78125 6.390625 
Q 39.453125 6.390625 43.28125 13.890625 
Q 47.125 21.390625 47.125 36.375 
Q 47.125 51.421875 43.28125 58.90625 
Q 39.453125 66.40625 31.78125 66.40625 
z
M 31.78125 74.21875 
Q 44.046875 74.21875 50.515625 64.515625 
Q 56.984375 54.828125 56.984375 36.375 
Q 56.984375 17.96875 50.515625 8.265625 
Q 44.046875 -1.421875 31.78125 -1.421875 
Q 19.53125 -1.421875 13.0625 8.265625 
Q 6.59375 17.96875 6.59375 36.375 
Q 6.59375 54.828125 13.0625 64.515625 
Q 19.53125 74.21875 31.78125 74.21875 
z
" id="DejaVuSans-48"/>
      </defs>
      <g transform="translate(176.81875 326.598437)scale(0.1 -0.1)">
       <use xlink:href="#DejaVuSans-48"/>
      </g>
     </g>
    </g>
    <g id="xtick_2">
     <g id="line2d_5">
      <g>
       <use style="stroke:#000000;stroke-width:0.5;" x="366" xlink:href="#mb54e5ced25" y="315"/>
      </g>
     </g>
     <g id="line2d_6">
      <g>
       <use style="stroke:#000000;stroke-width:0.5;" x="366" xlink:href="#m5f0667d727" y="36"/>
      </g>
     </g>
     <g id="text_2">
      <!-- 5 -->
      <defs>
       <path d="M 10.796875 72.90625 
L 49.515625 72.90625 
L 49.515625 64.59375 
L 19.828125 64.59375 
L 19.828125 46.734375 
Q 21.96875 47.46875 24.109375 47.828125 
Q 26.265625 48.1875 28.421875 48.1875 
Q 40.625 48.1875 47.75 41.5 
Q 54.890625 34.8125 54.890625 23.390625 
Q 54.890625 11.625 47.5625 5.09375 
Q 40.234375 -1.421875 26.90625 -1.421875 
Q 22.3125 -1.421875 17.546875 -0.640625 
Q 12.796875 0.140625 7.71875 1.703125 
L 7.71875 11.625 
Q 12.109375 9.234375 16.796875 8.0625 
Q 21.484375 6.890625 26.703125 6.890625 
Q 35.15625 6.890625 40.078125 11.328125 
Q 45.015625 15.765625 45.015625 23.390625 
Q 45.015625 31 40.078125 35.4375 
Q 35.15625 39.890625 26.703125 39.890625 
Q 22.75 39.890625 18.8125 39.015625 
Q 14.890625 38.140625 10.796875 36.28125 
z
" id="DejaVuSans-53"/>
      </defs>
      <g transform="translate(362.81875 326.598437)scale(0.1 -0.1)">
       <use xlink:href="#DejaVuSans-53"/>
      </g>
     </g>
    </g>
    <g id="xtick_3">
     <g id="line2d_7">
      <g>
       <use style="stroke:#000000;stroke-width:0.5;" x="552" xlink:href="#mb54e5ced25" y="315"/>
      </g>
     </g>
     <g id="line2d_8">
      <g>
       <use style="stroke:#000000;stroke-width:0.5;" x="552" xlink:href="#m5f0667d727" y="36"/>
      </g>
     </g>
     <g id="text_3">
      <!-- 10 -->
      <defs>
       <path d="M 12.40625 8.296875 
L 28.515625 8.296875 
L 28.515625 63.921875 
L 10.984375 60.40625 
L 10.984375 69.390625 
L 28.421875 72.90625 
L 38.28125 72.90625 
L 38.28125 8.296875 
L 54.390625 8.296875 
L 54.390625 0 
L 12.40625 0 
z
" id="DejaVuSans-49"/>
      </defs>
      <g transform="translate(545.6375 326.598437)scale(0.1 -0.1)">
       <use xlink:href="#DejaVuSans-49"/>
       <use x="63.623047" xlink:href="#DejaVuSans-48"/>
      </g>
     </g>
    </g>
    <g id="xtick_4">
     <g id="line2d_9">
      <g>
       <use style="stroke:#000000;stroke-width:0.5;" x="738" xlink:href="#mb54e5ced25" y="315"/>
      </g>
     </g>
     <g id="line2d_10">
      <g>
       <use style="stroke:#000000;stroke-width:0.5;" x="738" xlink:href="#m5f0667d727" y="36"/>
      </g>
     </g>
     <g id="text_4">
      <!-- 15 -->
      <g transform="translate(731.6375 326.598437)scale(0.1 -0.1)">
       <use xlink:href="#DejaVuSans-49"/>
       <use x="63.623047" xlink:href="#DejaVuSans-53"/>
      </g>
     </g>
    </g>
    <g id="xtick_5">
     <g id="line2d_11">
      <g>
       <use style="stroke:#000000;stroke-width:0.5;" x="924" xlink:href="#mb54e5ced25" y="315"/>
      </g>
     </g>
     <g id="line2d_12">
      <g>
       <use style="stroke:#000000;stroke-width:0.5;" x="924" xlink:href="#m5f0667d727" y="36"/>
      </g>
     </g>
     <g id="text_5">
      <!-- 20 -->
      <defs>
       <path d="M 19.1875 8.296875 
L 53.609375 8.296875 
L 53.609375 0 
L 7.328125 0 
L 7.328125 8.296875 
Q 12.9375 14.109375 22.625 23.890625 
Q 32.328125 33.6875 34.8125 36.53125 
Q 39.546875 41.84375 41.421875 45.53125 
Q 43.3125 49.21875 43.3125 52.78125 
Q 43.3125 58.59375 39.234375 62.25 
Q 35.15625 65.921875 28.609375 65.921875 
Q 23.96875 65.921875 18.8125 64.3125 
Q 13.671875 62.703125 7.8125 59.421875 
L 7.8125 69.390625 
Q 13.765625 71.78125 18.9375 73 
Q 24.125 74.21875 28.421875 74.21875 
Q 39.75 74.21875 46.484375 68.546875 
Q 53.21875 62.890625 53.21875 53.421875 
Q 53.21875 48.921875 51.53125 44.890625 
Q 49.859375 40.875 45.40625 35.40625 
Q 44.1875 33.984375 37.640625 27.21875 
Q 31.109375 20.453125 19.1875 8.296875 
z
" id="DejaVuSans-50"/>
      </defs>
      <g transform="translate(917.6375 326.598437)scale(0.1 -0.1)">
       <use xlink:href="#DejaVuSans-50"/>
       <use x="63.623047" xlink:href="#DejaVuSans-48"/>
      </g>
     </g>
    </g>
    <g id="xtick_6">
     <g id="line2d_13">
      <g>
       <use style="stroke:#000000;stroke-width:0.5;" x="1110" xlink:href="#mb54e5ced25" y="315"/>
      </g>
     </g>
     <g id="line2d_14">
      <g>
       <use style="stroke:#000000;stroke-width:0.5;" x="1110" xlink:href="#m5f0667d727" y="36"/>
      </g>
     </g>
     <g id="text_6">
      <!-- 25 -->
      <g transform="translate(1103.6375 326.598437)scale(0.1 -0.1)">
       <use xlink:href="#DejaVuSans-50"/>
       <use x="63.623047" xlink:href="#DejaVuSans-53"/>
      </g>
     </g>
    </g>
    <g id="xtick_7">
     <g id="line2d_15">
      <g>
       <use style="stroke:#000000;stroke-width:0.5;" x="1296" xlink:href="#mb54e5ced25" y="315"/>
      </g>
     </g>
     <g id="line2d_16">
      <g>
       <use style="stroke:#000000;stroke-width:0.5;" x="1296" xlink:href="#m5f0667d727" y="36"/>
      </g>
     </g>
     <g id="text_7">
      <!-- 30 -->
      <defs>
       <path d="M 40.578125 39.3125 
Q 47.65625 37.796875 51.625 33 
Q 55.609375 28.21875 55.609375 21.1875 
Q 55.609375 10.40625 48.1875 4.484375 
Q 40.765625 -1.421875 27.09375 -1.421875 
Q 22.515625 -1.421875 17.65625 -0.515625 
Q 12.796875 0.390625 7.625 2.203125 
L 7.625 11.71875 
Q 11.71875 9.328125 16.59375 8.109375 
Q 21.484375 6.890625 26.8125 6.890625 
Q 36.078125 6.890625 40.9375 10.546875 
Q 45.796875 14.203125 45.796875 21.1875 
Q 45.796875 27.640625 41.28125 31.265625 
Q 36.765625 34.90625 28.71875 34.90625 
L 20.21875 34.90625 
L 20.21875 43.015625 
L 29.109375 43.015625 
Q 36.375 43.015625 40.234375 45.921875 
Q 44.09375 48.828125 44.09375 54.296875 
Q 44.09375 59.90625 40.109375 62.90625 
Q 36.140625 65.921875 28.71875 65.921875 
Q 24.65625 65.921875 20.015625 65.03125 
Q 15.375 64.15625 9.8125 62.3125 
L 9.8125 71.09375 
Q 15.4375 72.65625 20.34375 73.4375 
Q 25.25 74.21875 29.59375 74.21875 
Q 40.828125 74.21875 47.359375 69.109375 
Q 53.90625 64.015625 53.90625 55.328125 
Q 53.90625 49.265625 50.4375 45.09375 
Q 46.96875 40.921875 40.578125 39.3125 
z
" id="DejaVuSans-51"/>
      </defs>
      <g transform="translate(1289.6375 326.598437)scale(0.1 -0.1)">
       <use xlink:href="#DejaVuSans-51"/>
       <use x="63.623047" xlink:href="#DejaVuSans-48"/>
      </g>
     </g>
    </g>
   </g>
   <g id="matplotlib.axis_2">
    <g id="ytick_1">
     <g id="line2d_17">
      <defs>
       <path d="M 0 0 
L 4 0 
" id="m80f714a82e" style="stroke:#000000;stroke-width:0.5;"/>
      </defs>
      <g>
       <use style="stroke:#000000;stroke-width:0.5;" x="180" xlink:href="#m80f714a82e" y="315"/>
      </g>
     </g>
     <g id="line2d_18">
      <defs>
       <path d="M 0 0 
L -4 0 
" id="m0d89313dd6" style="stroke:#000000;stroke-width:0.5;"/>
      </defs>
      <g>
       <use style="stroke:#000000;stroke-width:0.5;" x="1296" xlink:href="#m0d89313dd6" y="315"/>
      </g>
     </g>
     <g id="text_8">
      <!-- −1.0 -->
      <defs>
       <path d="M 10.59375 35.5 
L 73.1875 35.5 
L 73.1875 27.203125 
L 10.59375 27.203125 
z
" id="DejaVuSans-8722"/>
       <path d="M 10.6875 12.40625 
L 21 12.40625 
L 21 0 
L 10.6875 0 
z
" id="DejaVuSans-46"/>
      </defs>
      <g transform="translate(151.717187 317.759375)scale(0.1 -0.1)">
       <use xlink:href="#DejaVuSans-8722"/>
       <use x="83.789062" xlink:href="#DejaVuSans-49"/>
       <use x="147.412109" xlink:href="#DejaVuSans-46"/>
       <use x="179.199219" xlink:href="#DejaVuSans-48"/>
      </g>
     </g>
    </g>
    <g id="ytick_2">
     <g id="line2d_19">
      <g>
       <use style="stroke:#000000;stroke-width:0.5;" x="180" xlink:href="#m80f714a82e" y="245.25"/>
      </g>
     </g>
     <g id="line2d_20">
      <g>
       <use style="stroke:#000000;stroke-width:0.5;" x="1296" xlink:href="#m0d89313dd6" y="245.25"/>
      </g>
     </g>
     <g id="text_9">
      <!-- −0.5 -->
      <g transform="translate(151.717187 248.009375)scale(0.1 -0.1)">
       <use xlink:href="#DejaVuSans-8722"/>
       <use x="83.789062" xlink:href="#DejaVuSans-48"/>
       <use x="147.412109" xlink:href="#DejaVuSans-46"/>
       <use x="179.199219" xlink:href="#DejaVuSans-53"/>
      </g>
     </g>
    </g>
    <g id="ytick_3">
     <g id="line2d_21">
      <g>
       <use style="stroke:#000000;stroke-width:0.5;" x="180" xlink:href="#m80f714a82e" y="175.5"/>
      </g>
     </g>
     <g id="line2d_22">
      <g>
       <use style="stroke:#000000;stroke-width:0.5;" x="1296" xlink:href="#m0d89313dd6" y="175.5"/>
      </g>
     </g>
     <g id="text_10">
      <!-- 0.0 -->
      <g transform="translate(160.096875 178.259375)scale(0.1 -0.1)">
       <use xlink:href="#DejaVuSans-48"/>
       <use x="63.623047" xlink:href="#DejaVuSans-46"/>
       <use x="95.410156" xlink:href="#DejaVuSans-48"/>
      </g>
     </g>
    </g>
    <g id="ytick_4">
     <g id="line2d_23">
      <g>
       <use style="stroke:#000000;stroke-width:0.5;" x="180" xlink:href="#m80f714a82e" y="105.75"/>
      </g>
     </g>
     <g id="line2d_24">
      <g>
       <use style="stroke:#000000;stroke-width:0.5;" x="1296" xlink:href="#m0d89313dd6" y="105.75"/>
      </g>
     </g>
     <g id="text_11">
      <!-- 0.5 -->
      <g transform="translate(160.096875 108.509375)scale(0.1 -0.1)">
       <use xlink:href="#DejaVuSans-48"/>
       <use x="63.623047" xlink:href="#DejaVuSans-46"/>
       <use x="95.410156" xlink:href="#DejaVuSans-53"/>
      </g>
     </g>
    </g>
    <g id="ytick_5">
     <g id="line2d_25">
      <g>
       <use style="stroke:#000000;stroke-width:0.5;" x="180" xlink:href="#m80f714a82e" y="36"/>
      </g>
     </g>
     <g id="line2d_26">
      <g>
       <use style="stroke:#000000;stroke-width:0.5;" x="1296" xlink:href="#m0d89313dd6" y="36"/>
      </g>
     </g>
     <g id="text_12">
      <!-- 1.0 -->
      <g transform="translate(160.096875 38.759375)scale(0.1 -0.1)">
       <use xlink:href="#DejaVuSans-49"/>
       <use x="63.623047" xlink:href="#DejaVuSans-46"/>
       <use x="95.410156" xlink:href="#DejaVuSans-48"/>
      </g>
     </g>
    </g>
   </g>
  </g>
 </g>
 <defs>
  <clipPath id="p8599ba2c8b">
   <rect height="279" width="1116" x="180" y="36"/>
  </clipPath>
 </defs>
</svg>
